<?xml version="1.0" encoding="utf-8"?>
<!-- Generator: Adobe Illustrator 27.1.1, SVG Export Plug-In . SVG Version: 6.00 Build 0)  -->
<svg version="1.1" id="Layer_1" xmlns="http://www.w3.org/2000/svg" xmlns:xlink="http://www.w3.org/1999/xlink" x="0px" y="0px"
	 viewBox="0 0 53 48.1" style="enable-background:new 0 0 53 48.1;" xml:space="preserve">
<path d="M38.8,33.5H19.6l-3.9,3.4l-3.9-3.4H3.5v2.3c0,2.9,2,5.3,4.5,5.4c0.2,1.4,0.8,2.8,1.6,3.8c1.3,1.5,3.1,2.4,5.1,2.4h12.6
	c2.1,0,3.9-0.8,5.1-2.4c0.8-1,1.4-2.3,1.6-3.8c1.3,0,2.5-0.7,3.4-1.8c0.8-1,1.2-2.3,1.2-3.6V33.5z"/>
<path d="M12,30.4l3.7,2.7l3.7-2.7h19.4v-0.8c0-0.9-0.3-1.7-0.9-2.4c-0.6-0.7-1.3-1.2-2.2-1.3c-0.1-2.8-1.2-5.2-3.4-6.9
	c-2-1.6-4.7-2.4-7.7-2.4h-6.9c-6.5,0-11,3.7-11.1,9.3c-0.9,0.2-1.6,0.6-2.2,1.3s-0.9,1.5-0.9,2.4v0.8H12z"/>
<path d="M46.3,8.9h-7.1l0.9-3.4l4.3-1.5l-1-2.8l-5.9,1.9L36,8.9H21.9V12h1.8l0.2,1.5h0.7c3.7,0,7.1,1,9.6,3c1.4,1.1,2.6,2.5,3.3,4.1
	c0.5,1,0.8,2,1,3.1c1.4,0.9,2.5,2.2,3,3.9c0.5,1.6,0.4,3.3-0.3,4.9c0.4,1.1,0.6,2.2,0.6,3.3c0,2.1-0.7,4.2-2.1,5.7
	c-0.8,1-1.9,1.7-3.1,2.2c-0.4,1.1-1,2.2-1.8,3.2c-0.1,0.1-0.2,0.3-0.3,0.4h7.2c1.5,0,2.2-0.8,2.4-2.2L47.7,12h1.8V8.9H46.3z"/>
</svg>
