<?xml version="1.0" encoding="utf-8"?>
<!-- Generator: Adobe Illustrator 27.1.1, SVG Export Plug-In . SVG Version: 6.00 Build 0)  -->
<svg version="1.1" id="Layer_1" xmlns="http://www.w3.org/2000/svg" xmlns:xlink="http://www.w3.org/1999/xlink" x="0px" y="0px"
	 viewBox="0 0 53 47.5" style="enable-background:new 0 0 53 47.5;" xml:space="preserve">
<path d="M26.5,0c-12.7,0-23,10.3-23,23s10.3,23,23,23s23-10.3,23-23S39.2,0,26.5,0z M26.5,41.4C16.4,41.4,8.1,33.1,8.1,23
	S16.4,4.6,26.5,4.6S44.9,12.9,44.9,23S36.6,41.4,26.5,41.4z M13.9,35.6l17.3-8l8-17.3l-17.3,8L13.9,35.6z M26.5,20.5
	c1.4,0,2.5,1.1,2.5,2.5s-1.1,2.5-2.5,2.5S24,24.4,24,23S25.1,20.5,26.5,20.5z"/>
</svg>
