<?xml version="1.0" encoding="utf-8"?>
<!-- Generator: Adobe Illustrator 27.1.1, SVG Export Plug-In . SVG Version: 6.00 Build 0)  -->
<svg version="1.1" id="Layer_1" xmlns="http://www.w3.org/2000/svg" xmlns:xlink="http://www.w3.org/1999/xlink" x="0px" y="0px"
	 viewBox="0 0 53 46.4" style="enable-background:new 0 0 53 46.4;" xml:space="preserve">
<path d="M26.5,45.2c-12.2,0-22.1-9.9-22.1-22.1S14.3,1,26.5,1s22.1,9.9,22.1,22.1S38.7,45.2,26.5,45.2z M26.5,40.8
	c4.7,0,9.2-1.9,12.5-5.2c3.3-3.3,5.2-7.8,5.2-12.5c0-4.7-1.9-9.2-5.2-12.5c-3.3-3.3-7.8-5.2-12.5-5.2S17.3,7.3,14,10.6
	c-3.3,3.3-5.2,7.8-5.2,12.5c0,4.7,1.9,9.2,5.2,12.5C17.3,38.9,21.8,40.8,26.5,40.8z M24.3,12.1h4.4v4.4h-4.4V12.1z M24.3,20.9h4.4
	v13.2h-4.4V20.9z"/>
</svg>
