<?xml version="1.0" encoding="utf-8"?>
<!-- Generator: Adobe Illustrator 27.1.1, SVG Export Plug-In . SVG Version: 6.00 Build 0)  -->
<svg version="1.1" id="Layer_1" xmlns="http://www.w3.org/2000/svg" xmlns:xlink="http://www.w3.org/1999/xlink" x="0px" y="0px"
	 viewBox="0 0 53 39.9" style="enable-background:new 0 0 53 39.9;" xml:space="preserve">
<path d="M49.4,13.2h-5.6l-1.6-3.9c-1.6-4-5.4-6.6-9.7-6.6H20.5c-4.3,0-8.1,2.6-9.7,6.6l-1.6,3.9H3.6c-0.7,0-1.3,0.7-1.1,1.4l0.6,2.3
	c0.1,0.5,0.6,0.9,1.1,0.9h1.9C4.8,18.8,4,20.4,4,22.2v4.5c0,1.5,0.6,2.9,1.5,3.9v5.1c0,1.7,1.3,3,3,3h3c1.7,0,3-1.3,3-3v-3h24v3
	c0,1.7,1.3,3,3,3h3c1.7,0,3-1.3,3-3v-5.1c0.9-1.1,1.5-2.4,1.5-3.9v-4.5c0-1.8-0.8-3.4-2.1-4.5h1.9c0.5,0,1-0.4,1.1-0.9l0.6-2.3
	C50.6,13.9,50.1,13.2,49.4,13.2z M16.4,11.5c0.7-1.7,2.3-2.8,4.2-2.8h11.9c1.8,0,3.5,1.1,4.2,2.8l1.9,4.7h-24L16.4,11.5z M11.5,26.7
	c-1.8,0-3-1.2-3-3c0-1.8,1.2-3,3-3c1.8,0,4.5,2.7,4.5,4.5S13.3,26.7,11.5,26.7z M41.5,26.7c-1.8,0-4.5,0.3-4.5-1.5s2.7-4.5,4.5-4.5
	c1.8,0,3,1.2,3,3C44.5,25.5,43.3,26.7,41.5,26.7z"/>
</svg>
