<?xml version="1.0" encoding="UTF-8"?>
<svg id="Layer_1" data-name="Layer 1" xmlns="http://www.w3.org/2000/svg" viewBox="0 0 44.17 44.17">
  <defs>
    <style>
      .cls-1 {
        fill: #4285f4;
      }
    </style>
  </defs>
  <path class="cls-1" d="m22.08,44.17C9.89,44.17,0,34.28,0,22.08S9.89,0,22.08,0s22.08,9.89,22.08,22.08-9.89,22.08-22.08,22.08Zm0-4.42c4.69,0,9.18-1.86,12.49-5.17,3.31-3.31,5.17-7.81,5.17-12.49s-1.86-9.18-5.17-12.49c-3.31-3.31-7.81-5.17-12.49-5.17s-9.18,1.86-12.49,5.17c-3.31,3.31-5.17,7.81-5.17,12.49s1.86,9.18,5.17,12.49c3.31,3.31,7.81,5.17,12.49,5.17Zm-2.21-28.71h4.42v4.42h-4.42v-4.42Zm0,8.83h4.42v13.25h-4.42v-13.25Z"/>
</svg>