<?xml version="1.0" encoding="UTF-8"?>
<svg id="Layer_1" data-name="Layer 1" xmlns="http://www.w3.org/2000/svg" viewBox="0 0 46 46">
  <defs>
    <style>
      .cls-1 {
        fill: #4285f4;
      }
    </style>
  </defs>
  <path class="cls-1" d="m35.27,32.2h-19.13l-3.93,3.35-3.93-3.35H0v2.3c0,2.93,2.02,5.32,4.53,5.37.23,1.45.8,2.76,1.64,3.78,1.25,1.52,3.08,2.35,5.13,2.35h12.65c2.06,0,3.88-.84,5.14-2.35.85-1.02,1.41-2.33,1.64-3.78,1.33-.02,2.53-.71,3.35-1.79.78-1.03,1.19-2.29,1.17-3.58v-2.3Z"/>
  <path class="cls-1" d="m8.53,29.13l3.67,2.7,3.71-2.7h19.36v-.77c0-.88-.31-1.74-.86-2.42-.56-.68-1.34-1.16-2.2-1.33-.08-2.85-1.25-5.23-3.4-6.9-2-1.56-4.66-2.38-7.71-2.38h-6.9c-6.54,0-10.97,3.72-11.12,9.28-.86.18-1.64.65-2.2,1.33-.56.68-.86,1.54-.87,2.42v.77h8.53Z"/>
  <path class="cls-1" d="m42.85,7.67h-7.15l.85-3.42,4.27-1.47-.96-2.78-5.94,1.92-1.39,5.75h-14.14v3.07h1.8l.18,1.53h.71c3.74,0,7.06,1.04,9.59,3.02,1.41,1.09,2.55,2.48,3.34,4.08.49.99.83,2.04,1.03,3.13,1.43.88,2.49,2.25,2.98,3.85.49,1.6.38,3.33-.31,4.86.4,1.05.61,2.17.61,3.29,0,2.14-.73,4.18-2.05,5.75-.82.98-1.87,1.73-3.05,2.2-.4,1.15-1.01,2.22-1.78,3.16-.11.14-.23.27-.35.4h7.22c1.53,0,2.2-.77,2.4-2.2l3.49-33.06h1.78v-3.07h-3.15Z"/>
</svg>