<?xml version="1.0" encoding="UTF-8"?>
<svg id="Layer_1" data-name="Layer 1" xmlns="http://www.w3.org/2000/svg" viewBox="0 0 48 36">
  <defs>
    <style>
      .cls-1 {
        fill: #4285f4;
      }
    </style>
  </defs>
  <path class="cls-1" d="m46.87,10.5h-5.61l-1.56-3.9c-1.6-4.01-5.43-6.6-9.75-6.6h-11.91c-4.32,0-8.15,2.59-9.75,6.6l-1.56,3.9H1.13c-.73,0-1.27.69-1.09,1.4l.56,2.25c.12.5.57.85,1.09.85h1.88c-1.26,1.1-2.07,2.7-2.07,4.5v4.5c0,1.51.58,2.88,1.5,3.93v5.07c0,1.66,1.34,3,3,3h3c1.66,0,3-1.34,3-3v-3h24v3c0,1.66,1.34,3,3,3h3c1.66,0,3-1.34,3-3v-5.07c.92-1.05,1.5-2.42,1.5-3.93v-4.5c0-1.8-.81-3.4-2.07-4.5h1.88c.52,0,.97-.35,1.09-.85l.56-2.25c.18-.71-.36-1.4-1.09-1.4Zm-33.01-1.67c.68-1.71,2.34-2.83,4.18-2.83h11.91c1.84,0,3.5,1.12,4.18,2.83l1.87,4.67H12l1.87-4.67Zm-4.87,15.15c-1.8,0-3-1.2-3-2.99s1.2-2.99,3-2.99,4.5,2.69,4.5,4.49-2.7,1.5-4.5,1.5Zm30,0c-1.8,0-4.5.3-4.5-1.5s2.7-4.49,4.5-4.49,3,1.2,3,2.99-1.2,2.99-3,2.99Z"/>
</svg>